<svg id="drop-area" xmlns="http://www.w3.org/2000/svg" width="900.52" height="846.19" viewBox="0 0 400.52 346.19">
  <defs>
    <style>
      .cls-1 {
        fill: #c2b59b;
      }

      .cls-1, .cls-11, .cls-12, .cls-13, .cls-14, .cls-15, .cls-16, .cls-17, .cls-18, .cls-19, .cls-2, .cls-20, .cls-21, .cls-23, .cls-24, .cls-25, .cls-26, .cls-27, .cls-28, .cls-29, .cls-3, .cls-30, .cls-31, .cls-32, .cls-34, .cls-35, .cls-36, .cls-37, .cls-38, .cls-39, .cls-4, .cls-40, .cls-41, .cls-42, .cls-43 {
        stroke: #231f20;
      }

      .cls-1, .cls-11, .cls-12, .cls-13, .cls-14, .cls-15, .cls-16, .cls-17, .cls-18, .cls-19, .cls-2, .cls-20, .cls-21, .cls-22, .cls-23, .cls-24, .cls-25, .cls-26, .cls-27, .cls-28, .cls-29, .cls-3, .cls-30, .cls-31, .cls-32, .cls-34, .cls-35, .cls-36, .cls-37, .cls-38, .cls-39, .cls-4, .cls-40, .cls-41, .cls-42, .cls-43 {
        stroke-miterlimit: 10;
      }

      .cls-1, .cls-23, .cls-24 {
        stroke-width: 1.15px;
      }

      .cls-2, .cls-32 {
        fill: #e6e7e8;
      }

      .cls-2 {
        stroke-width: 0.36px;
      }

      .cls-13, .cls-3, .cls-36, .cls-37, .cls-38, .cls-39, .cls-40, .cls-41, .cls-42, .cls-43 {
        fill: #414042;
      }

      .cls-3 {
        stroke-width: 0.47px;
      }

      .cls-11, .cls-12, .cls-19, .cls-24, .cls-26, .cls-4 {
        fill: #fff;
      }

      .cls-4 {
        stroke-width: 0.44px;
      }

      .cls-15, .cls-16, .cls-20, .cls-5, .cls-6 {
        fill: #231f20;
      }

      .cls-6 {
        font-size: 11px;
        font-family: MyriadPro-Regular, Myriad Pro;
      }

      .cls-7 {
        letter-spacing: -0.01em;
      }

      .cls-8 {
        letter-spacing: 0em;
      }

      .cls-9 {
        letter-spacing: -0.01em;
      }

      .cls-10 {
        letter-spacing: 0em;
      }

      .cls-11 {
        stroke-width: 0.75px;
      }

      .cls-12 {
        stroke-width: 0.5px;
      }

      .cls-13, .cls-15, .cls-21, .cls-28 {
        stroke-width: 0.5px;
      }

      .cls-14, .cls-21, .cls-22 {
        fill: none;
      }

      .cls-14, .cls-16, .cls-22 {
        stroke-width: 0.25px;
      }

      .cls-17, .cls-18, .cls-34 {
        fill: #939598;
      }

      .cls-17 {
        stroke-width: 0.27px;
      }

      .cls-18 {
        stroke-width: 0.19px;
      }

      .cls-19 {
        stroke-width: 0.21px;
      }

      .cls-20 {
        stroke-width: 0.27px;
      }

      .cls-22 {
        stroke: #39b54a;
      }

      .cls-23, .cls-25, .cls-27 {
        fill: #ef4136;
      }

      .cls-25 {
        stroke-width: 1px;
      }

      .cls-26, .cls-27 {
        stroke-width: 0.53px;
      }

      .cls-28, .cls-29, .cls-30 {
        fill: #00a651;
      }

      .cls-29 {
        stroke-width: 0.56px;
      }

      .cls-30 {
        stroke-width: 0.57px;
      }

      .cls-31, .cls-33 {
        fill: #58595b;
      }

      .cls-31, .cls-32, .cls-34 {
        stroke-width: 0.21px;
      }

      .cls-35 {
        fill: #1c75bc;
        stroke-width: 0.35px;
      }

      .cls-36 {
        stroke-width: 0.35px;
      }

      .cls-37 {
        stroke-width: 0.29px;
      }

      .cls-38 {
        stroke-width: 0.39px;
      }

      .cls-39 {
        stroke-width: 0.32px;
      }

      .cls-40 {
        stroke-width: 0.38px;
      }

      .cls-41 {
        stroke-width: 0.4px;
      }

      .cls-42 {
        stroke-width: 0.3px;
      }

      .cls-43 {
        stroke-width: 0.39px;
      }
    </style>
     
  </defs>
  <g id="Layer_1" data-name="Layer 1">
    <g id="Table">
      <g>
        <polygon class="cls-1" points="334.95 108.62 334.95 248.62 341.95 248.62 341.95 107.71 334.95 108.62"/>
        <polygon class="cls-1" points="62.95 107.62 62.95 247.62 69.95 247.62 69.95 106.71 62.95 107.62"/>
        <polygon class="cls-1" points="1.95 204.62 1.95 344.62 8.95 344.62 8.95 203.71 1.95 204.62"/>
        <polygon class="cls-1" points="391.95 204.62 391.95 345.62 398.95 345.62 398.95 204.71 391.95 204.62"/>
      </g>
      <polygon class="cls-1" points="66.56 78.89 0.95 204.62 399.33 204.23 339.11 78.89 66.56 78.89"/>
      <rect class="cls-1" x="0.95" y="204.62" width="399" height="4"/>
    </g>
    <g id="Computer">
      <polygon id="Comp-handle" class="cls-2" points="208.45 104.12 208.45 89.12 198.45 89.12 198.45 104.12 179.45 104.12 179.45 108.12 228.45 108.12 228.45 104.12 208.45 104.12"/>
      <g id="Comp-screen">
        <rect id="Screen-border" class="cls-3" x="117.45" y="0.24" width="169.5" height="88.76"/>
        <rect id="Screen" class="cls-4" x="119.71" y="3.18" width="164.98" height="79.85"/>
      </g>
    </g>
    <g>
      <path class="cls-5" d="M284,241.32h-2.69v-8.73h2.81a4.37,4.37,0,0,1,2.18.52,3.46,3.46,0,0,1,1.38,1.5,5.92,5.92,0,0,1,0,4.67,3.46,3.46,0,0,1-1.42,1.51A4.52,4.52,0,0,1,284,241.32Zm-1.63-.94h1.57a3.46,3.46,0,0,0,1.79-.42,2.46,2.46,0,0,0,1.06-1.19,4.42,4.42,0,0,0,.35-1.83,4.38,4.38,0,0,0-.34-1.82,2.55,2.55,0,0,0-1-1.18,3.27,3.27,0,0,0-1.7-.41h-1.69Z" transform="translate(-119.55 -223.88)"/>
      <path class="cls-5" d="M289.8,241.32v-6.55h1v1h.07a1.61,1.61,0,0,1,.65-.79,1.89,1.89,0,0,1,1.05-.3h.28l.25,0v1l-.23,0a2.34,2.34,0,0,0-.38,0,1.81,1.81,0,0,0-.85.2,1.42,1.42,0,0,0-.59.55,1.48,1.48,0,0,0-.21.79v4.14Z" transform="translate(-119.55 -223.88)"/>
      <path class="cls-5" d="M296.81,241.45a3.13,3.13,0,0,1-1.63-.41,2.82,2.82,0,0,1-1.06-1.18,4.07,4.07,0,0,1-.37-1.76,4.16,4.16,0,0,1,.37-1.78,3,3,0,0,1,1-1.2,2.78,2.78,0,0,1,1.55-.43,2.94,2.94,0,0,1,1,.17,2.44,2.44,0,0,1,.91.55,2.63,2.63,0,0,1,.65,1,4.11,4.11,0,0,1,.25,1.54v.43h-5v-.87h4a2.12,2.12,0,0,0-.22-1,1.65,1.65,0,0,0-.62-.69,1.73,1.73,0,0,0-.95-.25,1.76,1.76,0,0,0-1,.3,1.88,1.88,0,0,0-.68.77,2.3,2.3,0,0,0-.23,1v.58a2.86,2.86,0,0,0,.26,1.26,1.82,1.82,0,0,0,.72.78,2.15,2.15,0,0,0,1.07.26,2.25,2.25,0,0,0,.71-.11,1.59,1.59,0,0,0,.56-.34,1.39,1.39,0,0,0,.36-.57l1,.27a2.13,2.13,0,0,1-.51.87,2.45,2.45,0,0,1-.9.58A3.2,3.2,0,0,1,296.81,241.45Z" transform="translate(-119.55 -223.88)"/>
      <path class="cls-5" d="M303,241.47a2.75,2.75,0,0,1-1.13-.23,2,2,0,0,1-.81-.69,1.91,1.91,0,0,1-.3-1.09,1.66,1.66,0,0,1,.23-.91,1.52,1.52,0,0,1,.59-.56,3.31,3.31,0,0,1,.82-.3c.3-.06.6-.12.9-.16l1-.11a1.72,1.72,0,0,0,.55-.14.37.37,0,0,0,.17-.34v0a1.34,1.34,0,0,0-.34-1,1.42,1.42,0,0,0-1-.35,1.81,1.81,0,0,0-1.13.32,1.84,1.84,0,0,0-.57.67l-1-.34a2.3,2.3,0,0,1,.68-.93,2.68,2.68,0,0,1,.94-.47,3.88,3.88,0,0,1,1.73-.06,2.25,2.25,0,0,1,.8.31,1.72,1.72,0,0,1,.64.69A2.61,2.61,0,0,1,306,237v4.31h-1v-.89h-.05a1.8,1.8,0,0,1-.34.46,1.91,1.91,0,0,1-.64.41A2.29,2.29,0,0,1,303,241.47Zm.15-.9a2,2,0,0,0,1-.24,1.56,1.56,0,0,0,.62-.6A1.58,1.58,0,0,0,305,239V238a.59.59,0,0,1-.28.14,4.67,4.67,0,0,1-.49.1l-.54.08-.43.05a4.1,4.1,0,0,0-.73.17,1.27,1.27,0,0,0-.54.33.87.87,0,0,0-.21.61.9.9,0,0,0,.39.79A1.7,1.7,0,0,0,303.13,240.57Z" transform="translate(-119.55 -223.88)"/>
      <path class="cls-5" d="M307.82,241.32v-6.55h1v1h.08a1.68,1.68,0,0,1,.66-.82,2,2,0,0,1,1.1-.29,1.93,1.93,0,0,1,1.08.29,1.89,1.89,0,0,1,.67.82h.07a1.91,1.91,0,0,1,.76-.81,2.27,2.27,0,0,1,1.2-.3,1.94,1.94,0,0,1,1.44.55,2.29,2.29,0,0,1,.56,1.7v4.38h-1v-4.38a1.25,1.25,0,0,0-.39-1,1.48,1.48,0,0,0-.94-.31A1.38,1.38,0,0,0,313,236a1.49,1.49,0,0,0-.38,1.05v4.26h-1v-4.48a1.2,1.2,0,0,0-.36-.91,1.41,1.41,0,0,0-1.66-.13,1.54,1.54,0,0,0-.55.58,1.67,1.67,0,0,0-.21.85v4.09Z" transform="translate(-119.55 -223.88)"/>
      <path class="cls-5" d="M326.53,234.77a1.34,1.34,0,0,0-.62-1,2.37,2.37,0,0,0-1.34-.36,2.46,2.46,0,0,0-1,.19,1.52,1.52,0,0,0-.67.51,1.24,1.24,0,0,0-.24.75,1.08,1.08,0,0,0,.16.6,1.57,1.57,0,0,0,.44.41,2.81,2.81,0,0,0,.55.27l.53.17.89.24c.23.06.48.14.76.24a4,4,0,0,1,.81.43,2.2,2.2,0,0,1,.63.69,2,2,0,0,1,.25,1,2.36,2.36,0,0,1-.36,1.28,2.64,2.64,0,0,1-1.08.91,4.56,4.56,0,0,1-3.33,0,2.52,2.52,0,0,1-1.07-.84,2.49,2.49,0,0,1-.45-1.26h1.1a1.29,1.29,0,0,0,.33.81,1.64,1.64,0,0,0,.74.48,2.78,2.78,0,0,0,1,.16,2.9,2.9,0,0,0,1.09-.2,1.89,1.89,0,0,0,.76-.55,1.31,1.31,0,0,0,.28-.84,1.05,1.05,0,0,0-.24-.71,1.91,1.91,0,0,0-.64-.44,7.82,7.82,0,0,0-.86-.3l-1.07-.3a4.13,4.13,0,0,1-1.62-.84,1.85,1.85,0,0,1-.6-1.43,2.14,2.14,0,0,1,.4-1.28,2.62,2.62,0,0,1,1.08-.85,3.52,3.52,0,0,1,1.51-.31,3.59,3.59,0,0,1,1.5.3,2.76,2.76,0,0,1,1,.82,2.08,2.08,0,0,1,.41,1.18Z" transform="translate(-119.55 -223.88)"/>
      <path class="cls-5" d="M332.12,234.77v.85h-3.39v-.85Zm-2.4-1.57h1v6.24a1.32,1.32,0,0,0,.12.64.64.64,0,0,0,.33.28,1.14,1.14,0,0,0,.41.07,1.1,1.1,0,0,0,.28,0l.17,0,.2.9a1.2,1.2,0,0,1-.28.08,2.11,2.11,0,0,1-.47,0,2,2,0,0,1-.83-.18,1.58,1.58,0,0,1-.67-.56,1.56,1.56,0,0,1-.27-.94Z" transform="translate(-119.55 -223.88)"/>
      <path class="cls-5" d="M337.77,238.64v-3.87h1v6.55h-1v-1.11h-.07a2.24,2.24,0,0,1-.72.85,2.06,2.06,0,0,1-1.23.34,2.2,2.2,0,0,1-1.09-.27,1.94,1.94,0,0,1-.75-.82,3.08,3.08,0,0,1-.27-1.38v-4.16h1v4.09a1.61,1.61,0,0,0,.4,1.15,1.36,1.36,0,0,0,1,.42,1.74,1.74,0,0,0,1.42-.78A1.75,1.75,0,0,0,337.77,238.64Z" transform="translate(-119.55 -223.88)"/>
      <path class="cls-5" d="M343.08,241.45a2.53,2.53,0,0,1-1.44-.41,2.73,2.73,0,0,1-1-1.18,4.13,4.13,0,0,1-.36-1.8,4.17,4.17,0,0,1,.36-1.79,2.76,2.76,0,0,1,1-1.17,2.65,2.65,0,0,1,1.46-.41,2.05,2.05,0,0,1,1,.21,1.73,1.73,0,0,1,.57.48,4.25,4.25,0,0,1,.31.43h.09v-3.22h1v8.73h-1v-1H345c-.07.12-.18.27-.31.45a1.82,1.82,0,0,1-.59.48A2.08,2.08,0,0,1,343.08,241.45Zm.14-.9a1.59,1.59,0,0,0,1-.32,2,2,0,0,0,.64-.88,3.69,3.69,0,0,0,.21-1.3,3.63,3.63,0,0,0-.21-1.29,1.86,1.86,0,0,0-.63-.86,1.87,1.87,0,0,0-2.09,0,1.87,1.87,0,0,0-.64.88,3.52,3.52,0,0,0-.21,1.25,3.4,3.4,0,0,0,.22,1.26,2,2,0,0,0,.64.91A1.65,1.65,0,0,0,343.22,240.55Z" transform="translate(-119.55 -223.88)"/>
      <path class="cls-5" d="M348.57,233.68a.68.68,0,0,1-.5-.2.65.65,0,0,1,0-1,.74.74,0,0,1,1,0,.65.65,0,0,1,0,1A.69.69,0,0,1,348.57,233.68Zm-.51,7.64v-6.55h1v6.55Z" transform="translate(-119.55 -223.88)"/>
      <path class="cls-5" d="M353.57,241.45A2.89,2.89,0,0,1,352,241a2.85,2.85,0,0,1-1-1.18,4.05,4.05,0,0,1-.37-1.77,4.17,4.17,0,0,1,.37-1.79,2.76,2.76,0,0,1,2.6-1.6,2.83,2.83,0,0,1,1.55.42,2.92,2.92,0,0,1,1,1.18,4,4,0,0,1,.37,1.79,3.91,3.91,0,0,1-.37,1.77,2.76,2.76,0,0,1-2.59,1.6Zm0-.9a1.7,1.7,0,0,0,1.1-.34,2.09,2.09,0,0,0,.65-.91,3.47,3.47,0,0,0,.21-1.22,3.43,3.43,0,0,0-.21-1.22,2.06,2.06,0,0,0-.65-.92,1.7,1.7,0,0,0-1.1-.35,1.73,1.73,0,0,0-1.11.35,2,2,0,0,0-.64.92,3.43,3.43,0,0,0-.21,1.22,3.47,3.47,0,0,0,.21,1.22,2,2,0,0,0,.64.91A1.73,1.73,0,0,0,353.57,240.55Z" transform="translate(-119.55 -223.88)"/>
    </g>
    <text class="cls-6" transform="translate(128.64 28.23)">D<tspan class="cls-7" x="7.33" y="0">r</tspan><tspan class="cls-8" x="10.87" y="0">ag and d</tspan><tspan class="cls-9" x="50.8" y="0">r</tspan><tspan x="54.28" y="0">op instrume</tspan><tspan class="cls-10" x="109.93" y="0">n</tspan><tspan x="115.99" y="0">ts he</tspan><tspan class="cls-9" x="137.94" y="0">r</tspan><tspan x="141.43" y="0">e</tspan></text>
    <rect id="box1" class="cls-11" x="131.95" y="33.62" width="26" height="18" rx="3.33"/>
    <rect id="box2" class="cls-11" x="131.95" y="57.62" width="26" height="18" rx="3.33"/>
    <rect id="box3" class="cls-11" x="168.95" y="35.62" width="26" height="18" rx="3.33"/>
    <rect id="box4" class="cls-11" x="168.95" y="57.62" width="26" height="18" rx="3.33"/>
    <rect id="box5" class="cls-11" x="205.95" y="35.62" width="26" height="18" rx="3.33"/>
    <rect id="box6" class="cls-11" x="205.95" y="57.62" width="26" height="18" rx="3.33"/>
    <rect id="box7" class="cls-11" x="243.95" y="35.62" width="26" height="18" rx="3.33"/>
    <rect id="box8" class="cls-11" x="243.95" y="57.62" width="26" height="18" rx="3.33"/>
  </g>
  <g id="Layer_2" data-name="Layer 2">
    <g id="piano">
      <g id="base">
        <polygon id="all-btm" class="cls-12" points="110.95 115.35 97.45 151.12 302.45 151.12 292.95 115.35 110.95 115.35"/>
        <polygon id="button-btm" class="cls-13" points="110.95 115.35 103.45 134.62 298.45 134.62 292.95 115.35 110.95 115.35"/>
        <rect id="_3d-btm-border" data-name="3d-btm-border" class="cls-13" x="97.45" y="151.12" width="205" height="3.5"/>
      </g>
      <g id="notes-lines">
        <line class="cls-14" x1="108.45" y1="134.12" x2="102.45" y2="151.12"/>
        <line class="cls-14" x1="113.68" y1="134.26" x2="107.68" y2="151.26"/>
        <line class="cls-14" x1="118.98" y1="134.11" x2="112.98" y2="151.11"/>
        <line class="cls-14" x1="124.21" y1="134.25" x2="118.21" y2="151.25"/>
        <line class="cls-14" x1="129.45" y1="134.12" x2="123.45" y2="151.12"/>
        <line class="cls-14" x1="135.45" y1="134.12" x2="129.45" y2="151.12"/>
        <line class="cls-14" x1="140.45" y1="134.12" x2="135.45" y2="151.12"/>
        <line class="cls-14" x1="146.45" y1="134.12" x2="141.45" y2="151.12"/>
        <line class="cls-14" x1="151.45" y1="135.12" x2="147.45" y2="151.12"/>
        <line class="cls-14" x1="158.45" y1="134.12" x2="154.45" y2="151.12"/>
        <line class="cls-14" x1="165.45" y1="134.12" x2="162.45" y2="151.12"/>
        <line class="cls-14" x1="172.45" y1="135.12" x2="170.45" y2="151.12"/>
        <line class="cls-14" x1="179.45" y1="134.12" x2="177.45" y2="151.12"/>
        <line class="cls-14" x1="186.45" y1="134.12" x2="184.45" y2="151.12"/>
        <line class="cls-14" x1="192.45" y1="134.12" x2="190.45" y2="151.12"/>
        <line class="cls-14" x1="200.45" y1="134.12" x2="198.45" y2="151.12"/>
        <line class="cls-14" x1="207.45" y1="134.12" x2="206.45" y2="151.12"/>
        <line class="cls-14" x1="213.45" y1="135.12" x2="213.45" y2="151.12"/>
        <line class="cls-14" x1="219.38" y1="134.96" x2="220.45" y2="151.12"/>
        <line class="cls-14" x1="226.45" y1="135.12" x2="228.45" y2="151.12"/>
        <line class="cls-14" x1="233.45" y1="135.12" x2="236.45" y2="151.12"/>
        <line class="cls-14" x1="240.45" y1="135.12" x2="244.45" y2="151.12"/>
        <line class="cls-14" x1="248.45" y1="135.12" x2="252.45" y2="151.12"/>
        <line class="cls-14" x1="255.45" y1="135.12" x2="260.45" y2="151.12"/>
        <line class="cls-14" x1="263.45" y1="135.12" x2="267.45" y2="151.12"/>
        <line class="cls-14" x1="270.45" y1="134.12" x2="274.45" y2="151.12"/>
        <line class="cls-14" x1="277.45" y1="135.12" x2="281.45" y2="151.12"/>
        <line class="cls-14" x1="283.45" y1="134.12" x2="288.45" y2="151.12"/>
        <line class="cls-14" x1="290.45" y1="134.12" x2="295.45" y2="151.12"/>
      </g>
      <g id="black-notes">
        <polygon id="Black-notes-l" class="cls-15" points="106.45 134.62 103.45 142.62 107.45 142.62 110.45 134.62 106.45 134.62"/>
        <polygon id="Black-notes-r" class="cls-15" points="288.65 134.62 290.95 142.62 294.95 142.62 292.65 134.62 288.65 134.62"/>
        <polygon id="Black-notes-r-2" data-name="Black-notes-r" class="cls-15" points="261.38 134.62 263.67 142.62 267.67 142.62 265.38 134.62 261.38 134.62"/>
        <polygon id="Black-notes-l-2" data-name="Black-notes-l" class="cls-15" points="126.75 134.62 123.75 142.62 127.75 142.62 130.75 134.62 126.75 134.62"/>
        <polygon id="Black-notes-l-3" data-name="Black-notes-l" class="cls-15" points="132.75 134.62 129.75 142.62 133.75 142.62 136.75 134.62 132.75 134.62"/>
        <polygon id="Black-notes-r-3" data-name="Black-notes-r" class="cls-15" points="216.95 134.62 216.95 142.62 220.95 142.62 220.37 134.62 216.95 134.62"/>
        <polygon id="Black-notes-r-4" data-name="Black-notes-r" class="cls-15" points="210.95 134.62 210.95 142.62 214.95 142.62 214.37 134.62 210.95 134.62"/>
        <polygon id="Black-notes-l-4" data-name="Black-notes-l" class="cls-15" points="164.04 134.62 161.95 142.62 166.95 142.62 168.04 134.62 164.04 134.62"/>
        <polygon id="Black-notes-l-5" data-name="Black-notes-l" class="cls-15" points="178.04 134.62 175.95 142.62 180.95 142.62 182.04 134.62 178.04 134.62"/>
        <polygon id="Black-notes-r-5" data-name="Black-notes-r" class="cls-15" points="253.44 134.62 255.73 142.62 259.73 142.62 257.44 134.62 253.44 134.62"/>
        <polygon id="Black-notes-l-6" data-name="Black-notes-l" class="cls-15" points="170.72 134.62 168.63 142.62 173.63 142.62 174.72 134.62 170.72 134.62"/>
      </g>
      <g id="buttons-circle">
        <circle class="cls-16" cx="283.95" cy="119.62" r="1.5"/>
        <circle class="cls-16" cx="285.95" cy="124.62" r="1.5"/>
        <circle class="cls-16" cx="273.95" cy="119.62" r="1.5"/>
        <circle class="cls-16" cx="275.95" cy="124.62" r="1.5"/>
        <circle class="cls-16" cx="277.95" cy="129.62" r="1.5"/>
        <circle class="cls-16" cx="287.95" cy="129.62" r="1.5"/>
      </g>
      <g id="audio-mixer">
        <g id="_4" data-name="4">
          <polygon class="cls-17" points="199.01 132.12 196.98 132.12 197.99 117.12 200.02 117.12 199.01 132.12"/>
          <polygon class="cls-5" points="203.4 122.45 194.45 122.12 194.45 120.12 203.4 120.45 203.4 122.45"/>
        </g>
        <g id="_3" data-name="3">
          <polygon class="cls-18" points="209.62 132.12 207.59 132.12 208.6 117.12 210.63 117.12 209.62 132.12"/>
          <polygon class="cls-5" points="213.71 127.01 204.76 126.67 204.76 124.67 213.71 125.01 213.71 127.01"/>
        </g>
        <g id="_2" data-name="2">
          <polygon class="cls-18" points="220.29 132.12 218.26 132.12 219.27 117.12 221.3 117.12 220.29 132.12"/>
          <polygon class="cls-5" points="224.71 124.01 215.76 123.67 215.76 121.67 224.71 122.01 224.71 124.01"/>
        </g>
        <g id="_1" data-name="1">
          <polygon class="cls-17" points="231.43 132.12 229.4 132.12 230.42 117.12 232.45 117.12 231.43 132.12"/>
          <polygon class="cls-5" points="235.71 128.01 226.76 127.67 226.76 125.67 235.71 126.01 235.71 128.01"/>
        </g>
      </g>
      <g id="buttons">
        <polygon class="cls-18" points="178.91 121.62 178.45 124.12 186.78 124.12 187.06 121.62 178.91 121.62"/>
        <polygon class="cls-18" points="178.02 129.08 177.57 131.58 185.9 131.58 186.18 129.08 178.02 129.08"/>
        <polygon class="cls-18" points="166.3 121.27 165.84 123.77 174.18 123.77 174.45 121.27 166.3 121.27"/>
        <polygon class="cls-18" points="165.42 128.74 164.96 131.24 173.3 131.24 173.57 128.74 165.42 128.74"/>
        <polygon class="cls-18" points="152.82 120.93 152.36 123.43 160.7 123.43 160.97 120.93 152.82 120.93"/>
        <polygon class="cls-18" points="151.94 128.4 151.48 130.9 159.82 130.9 160.09 128.4 151.94 128.4"/>
      </g>
      <g id="big-Volumes">
        <g>
          <circle class="cls-18" cx="244.45" cy="125.12" r="6"/>
          <circle class="cls-19" cx="244.45" cy="125.12" r="5"/>
          <circle class="cls-20" cx="244.45" cy="125.12" r="2"/>
        </g>
        <g>
          <circle class="cls-18" cx="261.45" cy="125.12" r="6"/>
          <circle class="cls-19" cx="261.45" cy="125.12" r="5"/>
          <circle class="cls-20" cx="261.45" cy="125.12" r="2"/>
        </g>
      </g>
      <g id="audio-analysie">
        <polygon class="cls-21" points="113.28 119.62 111.61 124.62 141.95 124.62 142.95 119.62 113.28 119.62"/>
        <polyline class="cls-22" points="112.95 123.62 114.95 120.62 115.95 123.62 116.95 123.62 117.95 121.62 118.95 123.62 119.95 121.62 120.95 123.62 121.95 121.62 122.95 123.62 123.95 121.62 124.95 123.62 128.95 123.62 129.95 120.62 130.95 123.62 131.95 123.62 133.95 123.62 134.95 120.62 135.95 123.62 136.95 122.62 137.95 123.62 138.95 122.62 139.95 123.62 140.95 123.62"/>
      </g>
      <g id="audio-analysie-botm">
        <polygon class="cls-21" points="111.35 126.76 109.68 131.76 140.01 131.76 141.01 126.76 111.35 126.76"/>
        <polyline class="cls-22" points="111.01 130.76 113.01 127.76 114.01 130.76 115.01 130.76 116.01 128.76 117.01 130.76 118.01 128.76 119.01 130.76 120.01 128.76 121.01 130.76 122.01 128.76 123.01 130.76 127.01 130.76 128.01 127.76 129.01 130.76 130.01 130.76 132.01 130.76 133.01 127.76 134.01 130.76 135.01 129.76 136.01 130.76 137.01 129.76 138.01 130.76 139.01 130.76"/>
      </g>
    </g>
    <g id="Speaker2">
      <rect class="cls-23" x="68.95" y="21.62" width="40" height="69" rx="2.11"/>
      <circle class="cls-24" cx="89.45" cy="70.12" r="13.5"/>
      <circle class="cls-24" cx="89.45" cy="40.12" r="8.5"/>
      <circle class="cls-25" cx="89.45" cy="70.12" r="10.5"/>
      <circle class="cls-26" cx="89.45" cy="70.12" r="5.5"/>
      <circle class="cls-27" cx="89.45" cy="40.12" r="5.5"/>
    </g>
    <g id="Speaker1">
      <rect class="cls-23" x="296.95" y="20.62" width="40" height="69" rx="2.11"/>
      <circle class="cls-24" cx="317.45" cy="69.12" r="13.5"/>
      <circle class="cls-24" cx="317.45" cy="39.12" r="8.5"/>
      <circle class="cls-25" cx="317.45" cy="69.12" r="10.5"/>
      <circle class="cls-26" cx="317.45" cy="69.12" r="5.5"/>
      <circle class="cls-27" cx="317.45" cy="39.12" r="5.5"/>
    </g>
  </g>
  <g id="Layer_3" data-name="Layer 3">
    <g id="mouse">
      <rect class="cls-28" x="438.01" y="368.04" width="17" height="28" rx="6.18" transform="translate(-228.9 -32.5) rotate(-21.62)"/>
      <line class="cls-29" x1="317.76" y1="158.03" x2="333.74" y2="151.69"/>
      <line class="cls-30" x1="321.98" y1="145.6" x2="325.66" y2="154.9"/>
    </g>
    <g id="HeadPhone">
      <path class="cls-31" d="M218.73,401.93c.63,1,2,1.7,2.7,1.26s.61-1.74.45-2.54v0a5.65,5.65,0,0,0-2.14-3c-2.09-1.92-1.53-2.89-4.66-8.5-2.23-4-2.08-2.89-3.34-5.35-.76-1.47-1.93-3.13-2.14-3s0,.56.12.82a31,31,0,0,0,2.65,6.29c2.45,4.05,2.2,3.33,3.34,5.35,1.77,3.15,2.65,4.75,2.65,6.3A4,4,0,0,0,218.73,401.93Z" transform="translate(-119.55 -223.88)"/>
      <path class="cls-31" d="M165.07,369.27a5.55,5.55,0,0,1,3.63-6.17,26,26,0,0,1,2.85-.82c5.55-1.24,10.08-.28,13.47.44a16.36,16.36,0,0,1,5.29,1.7c1.6.91,2.94,2.66,5.92,5.79,2.16,2.26,2.86,3.18,3.22,4.53.56,2.14-.45,2.66-.06,5a8,8,0,0,0,4.28,6c.5.23,2.51,1.12,4.22.19a5,5,0,0,0,2.08-2.84,7.05,7.05,0,0,0,.44-2.58c-.1-3.42-2.91-5.71-3.47-6.17-1.49-1.21-1.82-.78-3.65-1.95-3-1.91-2.91-3.56-6-6.61a51.53,51.53,0,0,0-5.67-4.15c-3.34-2.29-5-3.44-6.49-4a19.62,19.62,0,0,0-8.56-1.19,21.82,21.82,0,0,0-10.5,3c-.47.27-.93.57-1.38.89l-.09.06a7.09,7.09,0,0,0-3,5.25l-.08.72q-.09.8-.12,1.59l0,1.14a22.06,22.06,0,0,0,2,10.88h0q.13.28.3.57c2,3.29,2.66,2.6,5.06,6.45.53.86,2.13,3.5,4.41,6.86,1.22,1.79,1.84,2.63,3,2.9a3.71,3.71,0,0,0,1.54,0,4.56,4.56,0,0,0,1.26-.46,4.49,4.49,0,0,0,1.86-1.95c1-2.18-1.31-5.12-1.7-5.6-.62-.75-2.31-1.91-5.7-4.23-.25-.18-.94-.65-1.86-1.31s-1.78-1.3-1.89-1.38c-2.51-1.92-4.09-10.45-4.35-11.9C165.15,369.75,165.11,369.52,165.07,369.27Z" transform="translate(-119.55 -223.88)"/>
      <path class="cls-32" d="M163.43,380.3c-.13-.65.73-.56,2.2-2,1.11-1.09,1.36-1.13,1.51-1.07.46.18.38,2.46,1.33,3.15.67.49.14.87,3.9,3.59,3,2.15,2.44,1.86,3.78,2.76,2.56,1.72,3.09,1.79,3.78,2.77.29.41,1.86,2.73.76,4.91a4,4,0,0,1-3,2.15c-2,.2-3.46-1.42-4.6-2.65-1.93-2.07-1.56-3.41-5.35-7.55a32.42,32.42,0,0,1-3.09-3.71C163.56,381.12,163.56,380.94,163.43,380.3Z" transform="translate(-119.55 -223.88)"/>
      <path class="cls-33" d="M166,380.74c.87-.24,2.26,1.41,3,2.89.53,1.13.48,1.77,1.2,2.33a3.74,3.74,0,0,0,1.76.57c2.37.56,3.51,3,5.23,6.73.12.26.28.62.13.82-.35.45-2.21-.11-3.53-1.13s-1.25-2-3.34-5.35a16.09,16.09,0,0,0-2.14-3c-1.52-1.47-3-1.93-3-2.9A1.06,1.06,0,0,1,166,380.74Z" transform="translate(-119.55 -223.88)"/>
      <path class="cls-34" d="M177.23,399.12c.81.05,2.71,1.26,4.51.36,2.83-1.4,2.5-5.76,1.77-8.09a8.77,8.77,0,0,0-4.77-5.28,4.32,4.32,0,0,0-2.43-.54c-.06,0-1,.24-1,.64s1.27.74,2.25,1.34a6.83,6.83,0,0,1,2.81,6.55c-.37,2.6-5.62.61-5.29,2a15.59,15.59,0,0,1,.25,1.63A20.3,20.3,0,0,0,177.23,399.12Z" transform="translate(-119.55 -223.88)"/>
      <path class="cls-34" d="M201.08,374.49c1.43-1.24,3.7-.8,5,.06a6.12,6.12,0,0,1,2.14,3c.9,1.95,1.81,3.92.89,5.73a4,4,0,0,1-3,2.14c-2,.19-3.39-2-4.85-4.28A6.74,6.74,0,0,1,200,378,4.29,4.29,0,0,1,201.08,374.49Z" transform="translate(-119.55 -223.88)"/>
    </g>
    <g id="key-board">
      <polygon id="all-btm-2" data-name="all-btm" class="cls-35" points="139.91 167.78 130.51 192.68 273.25 192.68 266.63 167.78 139.91 167.78"/>
      <rect id="_3d-btm-border-2" data-name="3d-btm-border" class="cls-36" x="130.51" y="192.68" width="142.74" height="2.44"/>
      <polygon class="cls-37" points="238.71 170.62 237.33 173.12 240.08 173.12 241.45 170.62 238.71 170.62"/>
      <polygon class="cls-37" points="234 170.62 232.63 173.12 235.37 173.12 236.75 170.62 234 170.62"/>
      <polygon class="cls-37" points="229.3 170.62 227.93 173.12 230.67 173.12 232.04 170.62 229.3 170.62"/>
      <polygon class="cls-37" points="224.6 170.62 223.23 173.12 225.97 173.12 227.34 170.62 224.6 170.62"/>
      <polygon class="cls-37" points="219.9 170.62 218.53 173.12 221.27 173.12 222.64 170.62 219.9 170.62"/>
      <polygon class="cls-37" points="215.2 170.62 213.82 173.12 216.57 173.12 217.94 170.62 215.2 170.62"/>
      <polygon class="cls-37" points="210.49 170.62 209.12 173.12 211.87 173.12 213.24 170.62 210.49 170.62"/>
      <polygon class="cls-37" points="204.62 170.62 203.25 173.12 205.99 173.12 207.36 170.62 204.62 170.62"/>
      <polygon class="cls-37" points="199.91 170.62 198.54 173.12 201.29 173.12 202.66 170.62 199.91 170.62"/>
      <polygon class="cls-37" points="195.21 170.62 193.84 173.12 196.59 173.12 197.96 170.62 195.21 170.62"/>
      <polygon class="cls-37" points="190.51 170.62 189.14 173.12 191.88 173.12 193.25 170.62 190.51 170.62"/>
      <polygon class="cls-37" points="185.81 170.62 184.44 173.12 187.18 173.12 188.55 170.62 185.81 170.62"/>
      <polygon class="cls-37" points="181.11 170.62 179.74 173.12 182.48 173.12 183.85 170.62 181.11 170.62"/>
      <polygon class="cls-37" points="176.41 170.62 175.03 173.12 177.78 173.12 179.15 170.62 176.41 170.62"/>
      <polygon class="cls-37" points="171.71 170.62 170.33 173.12 173.08 173.12 174.45 170.62 171.71 170.62"/>
      <polygon class="cls-37" points="165.83 170.62 164.46 173.12 167.2 173.12 168.57 170.62 165.83 170.62"/>
      <polygon class="cls-37" points="161.13 170.62 159.75 173.12 162.5 173.12 163.87 170.62 161.13 170.62"/>
      <polygon class="cls-37" points="155.25 170.62 153.88 173.12 156.62 173.12 157.99 170.62 155.25 170.62"/>
      <polygon class="cls-37" points="149.37 170.62 148 173.12 150.74 173.12 152.11 170.62 149.37 170.62"/>
      <polygon class="cls-37" points="142.32 170.62 140.95 173.12 143.69 173.12 145.06 170.62 142.32 170.62"/>
      <polygon class="cls-38" points="239.54 176.93 237.59 180.12 243.45 180.12 243.45 176.93 239.54 176.93"/>
      <polygon class="cls-39" points="233.66 176.93 232.04 179.43 235.28 179.43 236.9 176.93 233.66 176.93"/>
      <polygon class="cls-39" points="228.11 176.93 226.49 179.43 229.73 179.43 231.34 176.93 228.11 176.93"/>
      <polygon class="cls-37" points="222.83 176.93 221.46 179.43 224.2 179.43 225.57 176.93 222.83 176.93"/>
      <polygon class="cls-37" points="218.13 176.93 216.76 179.43 219.5 179.43 220.87 176.93 218.13 176.93"/>
      <polygon class="cls-37" points="213.43 176.93 212.05 179.43 214.8 179.43 216.17 176.93 213.43 176.93"/>
      <polygon class="cls-37" points="208.72 176.93 207.35 179.43 210.09 179.43 211.47 176.93 208.72 176.93"/>
      <polygon class="cls-37" points="202.85 176.93 201.47 179.43 204.22 179.43 205.59 176.93 202.85 176.93"/>
      <polygon class="cls-37" points="198.15 176.93 196.77 179.43 199.52 179.43 200.89 176.93 198.15 176.93"/>
      <polygon class="cls-37" points="193.44 176.93 192.07 179.43 194.81 179.43 196.19 176.93 193.44 176.93"/>
      <polygon class="cls-37" points="188.74 176.93 187.37 179.43 190.11 179.43 191.48 176.93 188.74 176.93"/>
      <polygon class="cls-37" points="184.04 176.93 182.67 179.43 185.41 179.43 186.78 176.93 184.04 176.93"/>
      <polygon class="cls-37" points="179.34 176.93 177.97 179.43 180.71 179.43 182.08 176.93 179.34 176.93"/>
      <polygon class="cls-37" points="174.64 176.93 173.26 179.43 176.01 179.43 177.38 176.93 174.64 176.93"/>
      <polygon class="cls-37" points="169.93 176.93 168.56 179.43 171.31 179.43 172.68 176.93 169.93 176.93"/>
      <polygon class="cls-37" points="164.06 176.93 162.69 179.43 165.43 179.43 166.8 176.93 164.06 176.93"/>
      <polygon class="cls-37" points="159.35 176.93 157.98 179.43 160.73 179.43 162.1 176.93 159.35 176.93"/>
      <polygon class="cls-37" points="153.48 176.93 152.11 179.43 154.85 179.43 156.22 176.93 153.48 176.93"/>
      <polygon class="cls-37" points="147.6 176.93 146.23 179.43 148.97 179.43 150.34 176.93 147.6 176.93"/>
      <polygon class="cls-37" points="140.55 176.93 139.18 179.43 141.92 179.43 143.29 176.93 140.55 176.93"/>
      <polygon class="cls-40" points="237.44 182.27 236.45 185.12 243.45 185.12 243.45 182.12 237.44 182.27"/>
      <polygon class="cls-39" points="231.51 182.27 229.89 184.77 233.13 184.77 234.75 182.27 231.51 182.27"/>
      <polygon class="cls-39" points="225.96 182.27 224.34 184.77 227.58 184.77 229.2 182.27 225.96 182.27"/>
      <polygon class="cls-37" points="221.01 182.27 219.64 184.77 222.38 184.77 223.75 182.27 221.01 182.27"/>
      <polygon class="cls-37" points="216.31 182.27 214.94 184.77 217.68 184.77 219.05 182.27 216.31 182.27"/>
      <polygon class="cls-37" points="211.6 182.27 210.23 184.77 212.98 184.77 214.35 182.27 211.6 182.27"/>
      <polygon class="cls-37" points="206.9 182.27 205.53 184.77 208.28 184.77 209.65 182.27 206.9 182.27"/>
      <polygon class="cls-37" points="201.03 182.27 199.66 184.77 202.4 184.77 203.77 182.27 201.03 182.27"/>
      <polygon class="cls-37" points="196.32 182.27 194.95 184.77 197.7 184.77 199.07 182.27 196.32 182.27"/>
      <polygon class="cls-37" points="191.62 182.27 190.25 184.77 192.99 184.77 194.37 182.27 191.62 182.27"/>
      <polygon class="cls-37" points="186.92 182.27 185.55 184.77 188.29 184.77 189.66 182.27 186.92 182.27"/>
      <polygon class="cls-37" points="182.22 182.27 180.85 184.77 183.59 184.77 184.96 182.27 182.22 182.27"/>
      <polygon class="cls-37" points="177.52 182.27 176.15 184.77 178.89 184.77 180.26 182.27 177.52 182.27"/>
      <polygon class="cls-37" points="172.82 182.27 171.44 184.77 174.19 184.77 175.56 182.27 172.82 182.27"/>
      <polygon class="cls-37" points="168.11 182.27 166.74 184.77 169.49 184.77 170.86 182.27 168.11 182.27"/>
      <polygon class="cls-37" points="162.24 182.27 160.87 184.77 163.61 184.77 164.98 182.27 162.24 182.27"/>
      <polygon class="cls-37" points="157.53 182.27 156.16 184.77 158.91 184.77 160.28 182.27 157.53 182.27"/>
      <polygon class="cls-37" points="151.66 182.27 150.29 184.77 153.03 184.77 154.4 182.27 151.66 182.27"/>
      <polygon class="cls-37" points="145.78 182.27 144.41 184.77 147.15 184.77 148.52 182.27 145.78 182.27"/>
      <polygon class="cls-37" points="138.73 182.27 137.36 184.77 140.1 184.77 141.47 182.27 138.73 182.27"/>
      <polygon class="cls-41" points="234.08 188.12 231.9 191.12 243.45 191.12 243.45 188.12 234.08 188.12"/>
      <polygon class="cls-39" points="227.97 188.27 226.35 190.77 229.59 190.77 231.21 188.27 227.97 188.27"/>
      <polygon class="cls-37" points="222.71 188.27 221.34 190.77 224.08 190.77 225.45 188.27 222.71 188.27"/>
      <polygon class="cls-37" points="218.01 188.27 216.64 190.77 219.38 190.77 220.75 188.27 218.01 188.27"/>
      <polygon class="cls-37" points="213.31 188.27 211.94 190.77 214.68 190.77 216.05 188.27 213.31 188.27"/>
      <polygon class="cls-37" points="208.6 188.27 207.23 190.77 209.98 190.77 211.35 188.27 208.6 188.27"/>
      <polygon class="cls-37" points="203.9 188.27 202.53 190.77 205.28 190.77 206.65 188.27 203.9 188.27"/>
      <polygon class="cls-37" points="198.03 188.27 196.66 190.77 199.4 190.77 200.77 188.27 198.03 188.27"/>
      <polygon class="cls-37" points="193.32 188.27 191.95 190.77 194.7 190.77 196.07 188.27 193.32 188.27"/>
      <polygon class="cls-42" points="174.58 188.27 173.15 190.77 190.45 190.77 191.45 188.12 174.58 188.27"/>
      <polygon class="cls-37" points="169.82 188.27 168.44 190.77 171.19 190.77 172.56 188.27 169.82 188.27"/>
      <polygon class="cls-37" points="165.11 188.27 163.74 190.77 166.49 190.77 167.86 188.27 165.11 188.27"/>
      <polygon class="cls-37" points="159.24 188.27 157.87 190.77 160.61 190.77 161.98 188.27 159.24 188.27"/>
      <polygon class="cls-37" points="154.53 188.27 153.16 190.77 155.91 190.77 157.28 188.27 154.53 188.27"/>
      <polygon class="cls-37" points="148.66 188.27 147.29 190.77 150.03 190.77 151.4 188.27 148.66 188.27"/>
      <polygon class="cls-37" points="142.78 188.27 141.41 190.77 144.15 190.77 145.52 188.27 142.78 188.27"/>
      <polygon class="cls-37" points="135.73 188.27 134.36 190.77 137.1 190.77 138.47 188.27 135.73 188.27"/>
      <polygon class="cls-43" points="249.19 171.06 251.06 174.32 245.45 174.32 245.45 171.06 249.19 171.06"/>
      <polygon class="cls-43" points="255.6 171.06 257.47 174.32 253.73 174.32 251.86 171.06 255.6 171.06"/>
      <polyline class="cls-43" points="263.88 174.32 260.14 174.32 258.27 171.06 262.01 171.06 263.88 174.32"/>
      <polygon class="cls-43" points="251.67 178.03 253.54 181.29 248.71 181.12 247.93 178.03 251.67 178.03"/>
      <polygon class="cls-43" points="258.08 178.03 259.95 181.29 256.21 181.29 254.34 178.03 258.08 178.03"/>
      <polyline class="cls-43" points="266.36 181.29 262.62 181.29 260.75 178.03 264.49 178.03"/>
      <polyline class="cls-43" points="249.06 189.38 248.02 186.12 251.76 186.12 253.63 189.38"/>
      <polyline class="cls-43" points="256.3 189.38 254.43 186.12 258.17 186.12 260.04 189.38"/>
      <polygon class="cls-43" points="268.58 185.86 270.45 189.12 262.71 189.38 260.84 186.12 268.58 185.86"/>
    </g>
  </g>
</svg>
