<?xml version="1.0" encoding="UTF-8" standalone="no"?>
<svg
   width="232.36885"
   height="185.60545"
   viewBox="0 0 232.36885 185.60546"
   version="1.1"
   id="svg49"
   sodipodi:docname="315949ff623122869508aabcd20d62f0.svg"
   xmlns:inkscape="http://www.inkscape.org/namespaces/inkscape"
   xmlns:sodipodi="http://sodipodi.sourceforge.net/DTD/sodipodi-0.dtd"
   xmlns="http://www.w3.org/2000/svg"
   xmlns:svg="http://www.w3.org/2000/svg">
  <sodipodi:namedview
     id="namedview51"
     pagecolor="#ffffff"
     bordercolor="#666666"
     borderopacity="1.0"
     inkscape:pageshadow="2"
     inkscape:pageopacity="0.0"
     inkscape:pagecheckerboard="0" />
  <defs
     id="defs4">
    <style
       id="style2">
      .cls-1, .cls-4, .cls-5 {
        fill: #232156;
      }

      .cls-1 {
        stroke: #fbb03c;
        stroke-miterlimit: 10;
        stroke-width: 0.5px;
      }

      .cls-2 {
        fill: #78bae5;
        fill-rule: evenodd;
      }

      .cls-3 {
        fill: #fbf1de;
      }

      .cls-5 {
        font-size: 15.2px;
        font-family: FTYSPEEDYCASUALNCV, FTY SPEEDY CASUAL NCV;
      }
    </style>
  </defs>
  <g
     id="Layer_2"
     data-name="Layer 2"
     transform="translate(-0.00330912,0.00204743)">
    <g
       id="Logo">
      <path
         class="cls-1"
         d="m 232.07,79.61 c 0,0 0,-0.31 0,-6.84 0,-14.71 -0.28,-28.87 -0.06,-38 0,-0.5 -6.37,-2.32 -12,-3 -5.07,-0.62 -19.63,0.92 -27.23,3.21 a 4.93,4.93 0 0 1 -1.27,0.34 c -0.65,-0.84 -1.32,-1.66 -2,-2.47 a 53.44,53.44 0 0 0 -4.52,-5 A 94.18,94.18 0 0 0 177.54,21 L 176.9,20.45 A 60.51,60.51 0 0 0 169.44,15 91.06,91.06 0 0 0 119.88,0.25 c -46.4,-0.31 -82.75,34.63 -89.75,75.63 0,0 -0.6,0.36 -0.66,0.37 -5.46,0 -10,2 -15,4.2 L 11.1,81.94 A 53.55,53.55 0 0 0 2.24,87 c -1.46,1.1 -2.61,6.38 -1.61,11.38 1,5 -1,13.16 3.51,20.29 a 12.29,12.29 0 0 1 1.9,3.8 c 0.63,1.9 0.64,2.48 0,5.86 -1.32,7.44 0.12,12.2 6.54,18 5.23,4.79 13.13,6.32 16,6 9,-1 11.05,-2.56 15.48,-4.47 1.68,-0.72 1.08,-1.5 3,0.49 a 90.7,90.7 0 0 0 69.09,36.79 c 2.24,0.19 3.52,0.21 3.52,0.21 a 77.82,77.82 0 0 0 16,-1.51 c 35.82,-6.32 64.45,-33.86 72.89,-69.37 a 56.79,56.79 0 0 0 2.17,-9.8 c 0.68,-6 0.75,-5.32 0.75,-9.12 0,-2 3.23,-1.41 7.59,-2.29 3.8,-0.77 9.6,-0.85 12.15,-5.34 0.78,-1.2 1.02,-1.63 0.85,-8.31 z"
         id="path6" />
      <g
         id="g16">
        <path
           class="cls-2"
           d="m 86.4,21.33 h 0.29 c -1.5,0.13 -1,0.1 -0.48,0.06 h 0.19 z"
           id="path8" />
        <path
           class="cls-2"
           d="m 120,1.52 c -49.64,0 -89.9,40.69 -89.9,90.87 0,50.18 40.26,90.87 89.9,90.87 49.64,0 89.92,-40.68 89.92,-90.87 C 209.92,42.2 169.68,1.52 120,1.52 Z m 78.75,117.54 a 3.88,3.88 0 0 1 -1.54,2.7 7.76,7.76 0 0 1 -3.34,1.13 44.38,44.38 0 0 1 -4.31,1.06 c -1,0.09 -3.14,-0.84 -2.16,-2.13 0.69,-0.92 2.42,-1.3 3.49,-1.43 1.07,-0.13 1.85,-0.1 2.77,-0.2 a 8.89,8.89 0 0 0 3.24,-0.46 c 1.54,-0.73 1.86,-0.83 1.87,-0.67 z m -2.41,-19.5 c 1.7,0.84 1.66,5.62 1.13,7.18 a 17.13,17.13 0 0 0 -1.11,3.18 q -0.21,1.67 -0.45,3.33 c -0.29,1.94 -1,2.67 -2.91,2.59 -1.11,0 -3.17,0.15 -2.19,-1.4 0.98,-1.55 -1.19,-3.82 -0.1,-6.23 0.83,-1.84 3,-2.66 3.31,-4.78 0.17,-0.93 0.49,-4.79 2.34,-3.87 z M 185.25,42 c 1.73,-1.67 5.06,6.83 5.56,7.84 0.8,1.64 2.29,2.8 2.77,4.61 a 11.13,11.13 0 0 1 0,3.31 c 0,0.14 0,1.15 -0.74,0.4 -2.75,-2.68 -3.82,-7.41 -4.08,-8.1 -0.26,-0.69 -0.56,-1.52 -0.9,-2.26 -0.34,-0.74 0,-1.49 -0.45,-2 -0.45,-0.51 -1.59,-0.42 -2.16,-1.29 a 2,2 0 0 1 0,-2.51 z m -121,-15.1 a 31.81,31.81 0 0 1 5,-4.37 c 2.62,-1.67 5.29,-3.26 8,-4.85 2.37,-1.41 4.92,-2.59 7.41,-3.78 2,-1 4.18,-1.74 6.24,-2.68 A 42.9,42.9 0 0 1 97,9.36 c 0.84,-0.24 2,-0.67 2.13,-0.47 0.13,0.2 -0.27,1.77 -1,2.52 -1.69,1.81 -1.13,2.91 -1.88,5 -0.41,1.14 -1.27,1 -2.22,1.36 -0.95,0.36 -1.18,1.23 -1.79,1.9 -1.42,1.52 -4.21,1.62 -5.68,1.66 v 0 h -0.31 c -2,0.34 -3.52,1.62 -5.4,2.27 -2.49,0.86 -5.21,1.05 -7.75,1.81 a 28.06,28.06 0 0 0 -5.12,2.16 24.26,24.26 0 0 1 -4.63,1.78 C 61,30 63.76,27.33 64.21,26.89 Z M 67,41.51 c -0.89,0.43 -2.4,1.24 -2.78,0 -0.38,-1.24 1.42,-1.49 1.81,-2 0.91,-1.18 1.68,-1.18 3.15,-1.16 1,0 1.36,0.55 2.13,-0.38 0.44,-0.53 -0.18,-1.55 0.38,-2.21 0.56,-0.66 2.76,-0.88 2.88,-0.6 0.12,0.28 -0.9,2.63 -1.5,3.38 -1.23,1.57 -1.08,2.68 -1.93,4.39 -0.66,1.31 -1,1.67 -2.87,2 -0.72,0.13 -3,0.39 -3.06,-0.75 0,-0.78 3.74,-2.29 4.32,-2.84 2.2,-2.24 -1.26,-0.46 -2.53,0.17 z m 49.38,104.11 c -0.75,2.26 -1.44,4.62 -2.36,6.81 A 4.8,4.8 0 0 1 110.47,155.5 3.34,3.34 0 0 1 107,152 c 0,-1.16 0.45,-2.28 0.38,-3.45 a 15.7,15.7 0 0 1 -0.22,-3.14 c 0.2,-1.44 1.47,-2.15 2.69,-2.63 1.22,-0.48 2.77,-0.51 3.55,-1.56 1.21,-1.61 -0.49,-5.35 2.85,-1.42 1.29,1.55 0.68,4 0.08,5.82 z m 43.78,-34.25 c -1.49,-0.52 -2.31,-7.48 -0.35,-8 1.96,-0.52 1.5,8.42 0.3,8 z M 174,92.15 c -1.12,-0.36 -1.51,-2.51 -1.76,-3.49 -0.3,-1.15 -0.44,-2.8 -2,-2.7 a 13.34,13.34 0 0 0 -2.5,0.66 c -1,0.26 -2,0.19 -2.73,1 -1.28,1.4 -1.45,3.3 -3.21,4.33 a 2.92,2.92 0 0 0 -1.81,2.25 c -0.27,1.36 -1.3,1.88 -2.05,2.93 -0.49,0.71 -1.76,12.19 -4.69,9.44 -1.18,-1.11 -1.37,-3.44 -1.73,-4.91 -0.68,-2.75 -2.37,-4.18 -3.91,-6.41 -1.18,-1.71 0,-4.24 -1.55,-5.63 -1.55,-1.39 -3.68,-1.24 -5.37,-2 a 3.51,3.51 0 0 1 -2.1,-2.08 c -0.31,-0.79 -0.64,-1.55 -1.55,-1.69 -1.94,-0.32 -3.87,0.64 -5.86,0.41 -2.4,-0.29 -4.31,-1.84 -6.72,-1.35 -2.24,0.46 -4.17,-0.5 -6.07,-1.58 -0.73,-0.42 -5.2,-1.92 -4.29,-0.25 a 11.92,11.92 0 0 1 1.1,3.74 c 0.3,1.72 0.16,2 1.94,2.34 a 9.59,9.59 0 0 0 3.38,-0.08 c 1,-0.2 1.63,-1.06 2.6,-1.15 3.5,-0.33 1.06,1.06 1.52,1.59 0.67,0.76 2.06,1.39 2.74,2.16 1.22,1.39 0.24,4.6 -1.21,5.53 -0.8,0.51 -1.91,0.41 -2.42,1.34 -0.44,0.77 -0.44,1.87 -1.31,2.33 -0.87,0.46 -2.14,0.35 -3.12,0.65 a 38,38 0 0 1 -4.18,1 c -2.34,0.46 -4.21,2 -6.68,2 -2.47,0 -4.37,-1 -5.07,-3.49 -0.7,-2.49 -0.58,-4.63 -2.21,-6.62 a 20.58,20.58 0 0 1 -2,-2.56 C 98.39,88.5 98.01,86.98 97.18,85.64 96,84 95.52,82.13 93.68,81 c -1.12,-0.67 -3.43,-4.9 -3.09,-0.16 0.27,3.9 2.23,7.05 4.5,10 0.59,0.77 2,1.91 2.24,2.88 0.24,0.97 -0.17,1.81 0.13,2.65 0.3,0.84 0.69,1.77 1.09,2.62 a 10.09,10.09 0 0 0 3.91,4.35 5.09,5.09 0 0 1 2.14,1.78 5.53,5.53 0 0 0 2,2.76 8.47,8.47 0 0 0 2.59,1.24 c 1.09,0.26 1.13,-0.76 2,-1.18 0.87,-0.42 3,-2.8 4.28,-2.85 1.28,-0.05 0,1.07 0.32,2.4 0.54,2.11 -2.08,3.91 -2.64,5.72 -0.85,2.75 -1,5.22 -3,7.37 a 40.78,40.78 0 0 1 -6,5.55 c -0.84,0.63 -1.92,0.82 -2.68,1.55 a 7.16,7.16 0 0 0 -2,3.9 c -0.43,2.52 1,4.63 1.53,7 0.53,2.37 0.17,5.77 -2,7.29 -1.42,1 -4,1 -4.87,2.63 -0.87,1.63 1.16,3.89 1,5.73 -0.4,4.2 -5.79,6.91 -9.22,8.27 a 9.28,9.28 0 0 1 -5.77,0.7 c -2.21,-0.62 -3.91,-3 -5.56,-4.5 -1.65,-1.5 -2.91,-3.88 -4.92,-4.82 -1.8,-0.85 -2.38,-4.46 -3,-6.12 -0.52,-1.32 -1,-2.63 -1.51,-4 -0.35,-1 -1,-2.06 -1,-3.16 0,-3 1.15,-5.76 0.42,-8.81 -0.63,-2.66 -2,-5.07 -2.74,-7.74 -0.74,-2.85 -1.77,-5.48 -1.81,-8.46 0,-2.46 -0.76,-3.39 -3,-4 -2.24,-0.61 -2.66,-3.43 -5.1,-4.07 -2.16,-0.55 -4.24,-0.64 -6.23,-1.8 -2.27,-1.33 -3.31,-3.72 -4.24,-6.08 a 55.05,55.05 0 0 1 -2.63,-6.88 44.25,44.25 0 0 1 -0.73,-8.3 c -0.13,-2.87 0.92,-4.62 2.12,-7.07 1.27,-2.61 1.34,-4.83 3.89,-6.64 a 54.47,54.47 0 0 1 6.19,-4.06 11.56,11.56 0 0 0 2.88,-1.69 4.2,4.2 0 0 1 2.7,-1.42 c 2.25,-0.11 4.6,1.07 6.84,1.35 a 24.18,24.18 0 0 0 4.81,0.1 c 1,-0.11 1.13,-0.06 1.32,1 0.31,1.86 -0.47,3.44 0.84,5.12 a 10.42,10.42 0 0 0 5.43,3.71 c 1.09,0.23 4.15,0.87 4.39,-0.24 0.24,-1.11 0.5,-0.9 1.81,-0.41 2,0.75 3.42,1.93 5.61,2.09 3.2,0.22 7.49,-0.68 9,-3.91 0.5,-1.07 0.94,-3 -0.61,-3.3 -1.34,-0.3 -2.72,0.23 -4.08,0 -1.15,-0.24 -3,-0.87 -3.3,-2.24 -0.18,-1 0,-2.37 0.56,-2.72 0.56,-0.35 2.7,-0.37 3.33,-0.64 6.57,-2.86 8,1.13 11.09,-1 2.48,-1.75 -2.06,-1.58 -2.48,-2.95 -0.33,-1.09 2.57,-4.24 0,-3.14 -0.81,0.36 -1.51,2.7 -3,2.68 -1.8,0 -2,0.14 -2.07,-1 -0.07,-1.14 -0.73,-3.3 -2.12,-1.58 a 9.67,9.67 0 0 0 -1.16,2.29 c -0.48,1.08 -1.39,1.54 -2.19,2.33 -0.6,0.6 -0.67,1.74 -1.39,2.22 a 4,4 0 0 1 -2.82,0.38 c -1.89,-0.52 -1.82,-0.74 -2.13,1.25 -0.15,0.93 -0.38,2 -1.82,2.11 -1.44,0.11 -0.94,-0.14 -2.27,-2 -0.58,-0.77 -0.27,-2 -0.13,-2.68 a 4.79,4.79 0 0 0 -2.25,-5.43 c -1.15,-0.65 -1.43,1.76 -1.39,2.43 0.09,1.3 1.86,5.28 -0.53,5.82 -0.28,0.06 -2.31,-0.29 -2.31,-0.61 0,-0.81 1.41,-1.05 1.65,-1.46 1.36,-2.3 -1.63,-3.38 -1.8,-5.26 -0.06,-0.57 -0.82,-1.55 -1.44,-1.39 a 6,6 0 0 1 -3,0.35 3.22,3.22 0 0 0 -2.43,1.07 4.79,4.79 0 0 1 -3,1.49 c -4,0.08 -3.3,2.42 -7,2.28 -1.07,0 -2.24,0.24 -2.71,-0.18 -0.47,-0.42 -0.4,-1.08 -0.42,-2.19 0,-2 0.38,-3.53 1.79,-4.43 3.77,-2.4 5.31,-2.11 7.68,-2.43 1.64,-0.22 1.64,-0.22 1.89,-1.55 0.13,-0.72 0,-2.06 0.54,-2.77 1.24,-1.8 4.88,-1.92 6.81,-2.11 a 11.4,11.4 0 0 0 3.4,-0.9 c 1.09,-0.45 1.2,-0.93 1.79,-1.85 0.59,-0.92 2.4,-0.28 2.55,-1.19 0.31,-2 0.86,-0.32 3.89,0.66 2.68,0.87 5.24,-1.1 7.84,-1.6 1.81,-0.34 3.77,0.15 5.53,-0.38 0.55,-0.16 1,-1.25 0.85,-1.44 A 5.23,5.23 0 0 0 94.9,39.11 c -1.28,0.15 -3.91,0 -1.76,-1.55 1,-0.72 2.47,-1.06 3.11,-2.24 0.17,-0.29 0.41,-0.57 0.25,-0.7 -0.5,-0.38 -4.6,0.36 -5,0.57 -2.11,1 -2.41,2.77 -3.55,4.56 a 3.31,3.31 0 0 1 -5.28,0.33 c -0.51,-0.61 -0.18,-2.28 -0.82,-2.8 -0.64,-0.52 -1.25,1.19 -2.24,-0.42 -1.21,-2 2,-3.22 3.16,-3.66 a 33.91,33.91 0 0 1 4.74,-1.4 c 0.83,-0.18 1.66,-0.36 2.47,-0.62 a 16.83,16.83 0 0 0 2,-1.16 c 1.69,-0.79 3.33,0.06 5,-0.26 a 18.22,18.22 0 0 1 5.18,-0.65 c 1.41,0.16 5,0.66 5.63,2.24 0.94,2.51 -5.35,1.83 -4.93,2.73 0.84,1.8 3.69,1 4.76,0.85 a 13.49,13.49 0 0 0 6.8,-3.25 c 2,-1.62 4.29,-0.09 6.62,-0.74 a 16.39,16.39 0 0 0 3.68,-1 c 1.39,-0.82 -1,-2 1.71,-2.2 a 3.4,3.4 0 0 1 3.89,2.82 c 0.08,0.71 0.08,1.81 0.72,2.26 a 1,1 0 0 0 1.1,0 c 0.29,-0.17 0.15,-2.16 0.06,-2.51 a 5.16,5.16 0 0 1 2.33,-5.89 24.34,24.34 0 0 1 3.43,-1.61 c 1.28,-0.61 2.51,-1.29 3.8,-1.92 2.49,-1.22 1.83,0.39 3.82,0.71 a 14.8,14.8 0 0 0 6,-0.58 c 0.91,-0.45 1.5,-1.73 2,-2.35 a 2.27,2.27 0 0 1 0.41,-0.41 c 0.36,-0.24 0.59,0.58 1.33,0.89 a 43.69,43.69 0 0 1 5.52,2.86 c 3.29,2 6.56,3.58 9.16,6.49 a 12.4,12.4 0 0 0 4.85,3.6 c 1.65,0.72 3,2.8 4.09,4.17 a 22.2,22.2 0 0 1 4.5,8.16 c 1.87,6.8 3.92,6.15 4.8,9.63 0.16,0.62 0.7,2 0.15,2.85 -0.23,0.33 -0.29,0.58 -0.68,0.31 -2.36,-1.6 -2.22,-2.94 -2.62,-3.39 -0.81,-0.9 -1.34,-1.37 -2.84,-0.71 -1.88,0.82 1.74,0.87 1.79,2.1 0.06,1.69 1,1.55 1.41,2.58 a 24.34,24.34 0 0 0 1.16,3.6 c 1.15,2.06 3.2,3.44 4.23,5.6 a 11.33,11.33 0 0 1 0.66,5.17 c 0,1.37 0.08,3.27 -0.77,4.43 -0.64,0.87 -1.55,1.43 -1.8,2.54 -0.31,1.4 -0.37,2.15 -1.87,2.48 -2.39,0.53 -2.65,5.81 -1.83,7.68 0.62,1.41 1.68,2.71 2.23,4.13 a 5.09,5.09 0 0 1 0.4,2.14 c -0.07,0.79 -1.36,0.82 -1.44,1.72 A 5.68,5.68 0 0 1 185,99.85 c -0.31,0 -0.63,-1.17 -1.07,-1.51 -2.7,-2.15 -2.87,-2.18 -3,-0.61 a 10.51,10.51 0 0 0 0.14,2.39 c 0.24,1.77 0.41,2.11 1.84,3.14 1.43,1.03 3.14,2 3.47,4.07 0.17,1 0.22,3.25 -1.33,3.21 a 2.94,2.94 0 0 1 -2.27,-1.8 c -0.74,-1.28 -1.72,-2.32 -2.58,-3.52 -1.47,-2.07 -1.66,-4.58 -1.73,-7 0,-2.21 0.17,-5.86 -1.55,-7.57 -1.11,-1.13 -1.82,1.87 -2.92,1.5 z m 3.38,15.53 c 1.75,-0.32 3.48,1.84 4.13,3.14 1.82,3.63 3.46,1.16 4.28,2.71 a 7.19,7.19 0 0 1 0.92,4 c -0.26,2.77 -1.76,3.85 -2.25,3.76 -0.49,-0.09 -0.62,-1.27 -1.15,-2.1 a 35.1,35.1 0 0 1 -2,-4.29 c -0.87,-1.81 -2.52,-2.65 -3.87,-4 -0.84,-0.74 -1.91,-2.9 -0.11,-3.22 z m 20.44,19 c -0.26,1.25 -0.06,3.19 -0.6,4.31 a 49.06,49.06 0 0 1 -5.65,8.16 c -2.07,2.65 -3.72,5.57 -5.83,8.21 -1.11,1.39 -2.94,4.65 -5,4.8 -2.93,0.21 0.82,-6.21 1.19,-7 1.2,-2.65 2.25,-5.65 4,-8 1.75,-2.35 4.53,-3.44 6.74,-5.15 a 13.19,13.19 0 0 0 2.81,-2.87 c 0.74,-1.07 0.64,-2.51 1.38,-3.58 0.9,-1.38 1.07,0.29 0.91,1.08 z"
           id="path10" />
        <path
           class="cls-2"
           d="M 86.43,21.33 Z"
           id="path12" />
        <path
           class="cls-2"
           d="M 86.69,21.3 H 86.58 Z"
           id="path14" />
      </g>
      <g
         id="Banner">
        <path
           class="cls-3"
           d="m 1.12,96.08 a 42.74,42.74 0 0 1 0.63,5.53 c 0.12,2.47 0.3,5.85 0.49,8.2 0.52,6.45 1.26,5.7 4.43,10.76 a 12.2,12.2 0 0 1 1.27,3.8 c 0,1.36 -1,3.94 -1.27,5.7 -0.63,3.8 0,7.43 3.8,12.66 5.61,7.82 16,8.51 19,8.24 4.07,-0.38 5.36,-0.37 8.86,-1.9 10.13,-4.44 6.42,-3.82 9.5,-4.44 7.6,-1.53 29.32,-9.94 32.36,-10.71 7.32,-1.84 8.8,-2.6 22.15,-7.63 15,-5.63 9.09,-3.48 39.23,-17.16 A 374.68,374.68 0 0 1 194,89.29 c 16.93,-5 21.28,-3.07 28.49,-3.46 5,-0.26 8.64,0.76 8.37,1 -0.38,-4.18 0,-4.74 0,-8.23 0,-5.32 0.09,-5.77 0,-11 -0.4,-18.61 0.35,-23.17 0.34,-31.53 0,-1.94 -5.71,-2.44 -11.78,-2.64 a 94.61,94.61 0 0 0 -16,0.78 138,138 0 0 0 -22.79,5.36 C 165,44.38 153.41,49.21 151,50.23 c -15.93,6.66 -16.68,8.12 -37.2,17.53 -5.08,2.33 0,-0.06 -37.21,15.25 C 61.19,89.34 58,87.64 51,86.38 46.46,85.55 42.13,85.11 34.53,83.21 28.27,81.64 20.6,84.48 16.8,85.74 13.17,87 8.57,88.91 1.6,92.08 c -1.3,0.59 -0.92,1.58 -0.48,4 z"
           id="path18" />
        <g
           id="g44">
          <path
             class="cls-4"
             d="m 126.11,78.34 a 7.18,7.18 0 0 1 3.58,-0.16 7.91,7.91 0 0 1 3.17,1.5 11.39,11.39 0 0 1 2.61,2.94 18.78,18.78 0 0 1 1.94,4.18 24.41,24.41 0 0 1 1.17,5.2 14.78,14.78 0 0 1 -0.18,4.74 8.53,8.53 0 0 1 -1.76,3.71 7.58,7.58 0 0 1 -7.48,2.25 8.48,8.48 0 0 1 -3.32,-1.9 14,14 0 0 1 -2.66,-3.34 23.71,23.71 0 0 1 -1.94,-4.24 22.39,22.39 0 0 1 -1.11,-5.09 14.87,14.87 0 0 1 0.24,-4.58 8.65,8.65 0 0 1 1.73,-3.55 6.88,6.88 0 0 1 3.35,-2.16 3.75,3.75 0 0 1 0.36,0.24 2.76,2.76 0 0 1 0.3,0.26 z m 1.21,4.28 a 2.77,2.77 0 0 0 -1.47,1.38 6.41,6.41 0 0 0 -0.58,2.39 12.49,12.49 0 0 0 0.14,2.89 18.17,18.17 0 0 0 0.71,2.93 21.93,21.93 0 0 0 1.15,2.83 10,10 0 0 0 1.38,2.16 4.88,4.88 0 0 0 1.59,1.28 2.62,2.62 0 0 0 1.79,0.16 2.22,2.22 0 0 0 1.44,-1.24 6,6 0 0 0 0.52,-2.35 13.35,13.35 0 0 0 -0.25,-3.1 25.32,25.32 0 0 0 -0.93,-3.53 14.62,14.62 0 0 0 -2.37,-4.74 2.91,2.91 0 0 0 -3.12,-1.06 z"
             id="path20" />
          <path
             class="cls-4"
             d="m 206.35,72 a 8.85,8.85 0 0 1 0.21,-2.29 6.68,6.68 0 0 1 0.78,-2 6.47,6.47 0 0 0 2.6,2 7,7 0 0 0 3.09,0.57 4.56,4.56 0 0 0 2.18,-0.55 1.55,1.55 0 0 0 0.71,-1.59 2.32,2.32 0 0 0 -1,-1.66 9.85,9.85 0 0 0 -2.13,-1.2 c -0.82,-0.33 -1.63,-0.63 -2.44,-0.89 a 10.38,10.38 0 0 1 -1.9,-0.79 8,8 0 0 1 -2.45,-2.07 6,6 0 0 1 -1.17,-3.15 9,9 0 0 1 0.36,-3.54 8.39,8.39 0 0 1 1.58,-2.91 9.34,9.34 0 0 1 2.63,-2.15 12.12,12.12 0 0 1 3.51,-1.29 11.12,11.12 0 0 1 2.06,-0.22 9.74,9.74 0 0 1 2.24,0.18 7.51,7.51 0 0 1 2,0.7 2.64,2.64 0 0 1 1.26,1.36 5.13,5.13 0 0 1 0.32,2.88 10.71,10.71 0 0 1 -0.78,2.78 1.56,1.56 0 0 1 -0.78,0.54 11.52,11.52 0 0 1 -1.33,0.44 13.06,13.06 0 0 1 -1.46,0.3 7.06,7.06 0 0 1 -1.2,0.09 6.8,6.8 0 0 0 0.48,-1.6 12.83,12.83 0 0 0 0.28,-1.74 1.07,1.07 0 0 0 -0.68,-1.22 2.57,2.57 0 0 0 -1.69,0 4.3,4.3 0 0 0 -1.58,0.81 4.87,4.87 0 0 0 -1.05,1.21 4.43,4.43 0 0 0 -0.55,1.44 4,4 0 0 0 0,1.51 3.47,3.47 0 0 0 1.25,2 7.9,7.9 0 0 0 2.56,1.43 c 1,0.38 2,0.77 2.88,1.14 a 12,12 0 0 1 2.33,1.3 6,6 0 0 1 1.63,1.7 5.58,5.58 0 0 1 0.14,5.24 5.3,5.3 0 0 1 -1.92,1.9 9.27,9.27 0 0 1 -2.8,1.07 18.9,18.9 0 0 1 -3.14,0.41 A 14.3,14.3 0 0 1 209,73.75 4.16,4.16 0 0 1 206.35,72 Z"
             id="path22" />
          <path
             class="cls-4"
             d="m 68.74,118.67 q 2,2.22 4.16,4.5 a 48.47,48.47 0 0 0 4.36,4 4.82,4.82 0 0 1 -0.6,0.59 10.29,10.29 0 0 1 -0.89,0.67 8.27,8.27 0 0 1 -1.11,0.62 5.24,5.24 0 0 1 -1.32,0.43 6.31,6.31 0 0 1 -1.92,-1.07 23.67,23.67 0 0 1 -2.31,-2 c -0.81,-0.79 -1.65,-1.66 -2.49,-2.62 -0.84,-0.96 -1.68,-1.94 -2.5,-2.94 0.3,1.56 0.69,3.11 1.14,4.64 0.45,1.53 1.06,5.59 1,4.89 -0.27,0.29 -0.15,0.29 -0.57,0.47 a 6.13,6.13 0 0 1 -1.3,0.41 7.55,7.55 0 0 1 -3,0.08 c -0.69,-1.94 -0.78,-4.16 -1.37,-6.38 -0.59,-2.22 -1.11,-4.41 -1.58,-6.59 -0.47,-2.18 -0.89,-4.23 -1.27,-6.19 -0.38,-1.96 -0.69,-3.67 -1,-5.13 -0.22,-0.36 -0.46,-0.77 -0.73,-1.25 a 10.48,10.48 0 0 1 -0.61,-1.18 9,9 0 0 1 2.17,-1.55 14.4,14.4 0 0 1 3.61,-1.07 14.73,14.73 0 0 1 4.07,-0.27 8.4,8.4 0 0 1 3.47,1 8.1,8.1 0 0 1 2.7,2.5 12.25,12.25 0 0 1 1.75,4.11 8.08,8.08 0 0 1 -0.36,5.5 8.83,8.83 0 0 1 -3.5,3.83 z M 63,116.05 h 0.45 l 0.43,-0.06 a 3.71,3.71 0 0 0 1.88,-1 6.28,6.28 0 0 0 1.24,-1.79 7,7 0 0 0 0.67,-2 4.34,4.34 0 0 0 0,-1.77 A 3.72,3.72 0 0 0 66,107 a 5.75,5.75 0 0 0 -4,-0.24 4.22,4.22 0 0 0 -0.86,0.3 c 0.22,1.1 0.4,2.07 0.56,2.92 0.16,0.85 0.31,1.63 0.44,2.33 0.13,0.7 0.26,1.36 0.39,2 0.13,0.64 0.31,1.15 0.47,1.74 z"
             id="path24" />
          <path
             class="cls-4"
             d="m 202.69,49.74 a 2.85,2.85 0 0 1 -1.2,0 3.51,3.51 0 0 1 -1.12,-0.42 2.48,2.48 0 0 1 -0.82,-0.79 2.27,2.27 0 0 1 -0.35,-1.17 2.75,2.75 0 0 1 0.92,-2.25 3.77,3.77 0 0 1 2.44,-1 3.17,3.17 0 0 1 2.37,0.75 3,3 0 0 1 1,2.18 5.79,5.79 0 0 1 -0.16,1.36 8.47,8.47 0 0 1 -0.57,1.67 6.79,6.79 0 0 1 -1.08,1.67 5.72,5.72 0 0 1 -1.65,1.32 1.3,1.3 0 0 1 -1,-0.28 5,5 0 0 0 0.49,-0.6 5.22,5.22 0 0 0 0.47,-0.81 4.5,4.5 0 0 0 0.33,-0.88 1.35,1.35 0 0 0 -0.07,-0.75 z"
             id="path26" />
          <path
             class="cls-4"
             d="M 52.21,105.88 C 49.85,99.59 47.21,95.1 42.48,91.76 A 19.89,19.89 0 0 0 35.4,88.3 31.26,31.26 0 0 0 22.06,88.16 a 29.12,29.12 0 0 0 -11.91,5.6 15.36,15.36 0 0 0 -4.63,9.88 c -0.22,2.67 0.81,6.77 2.89,8 a 6.36,6.36 0 0 0 4.58,0.6 4,4 0 0 0 2.3,-1.45 c 0.63,-1 -0.66,-1.35 -1.45,-2.25 a 6.27,6.27 0 0 1 -1.65,-3.07 c -0.41,-1.64 0.31,-3.08 1.48,-4.73 a 14.19,14.19 0 0 1 3.56,-3.51 c 1.67,-1.17 6.33,-4.43 12.31,-4 6.58,0.51 10.64,5.2 12.48,7.33 a 27.37,27.37 0 0 1 6.58,19.27 c -0.22,2.67 -1.19,9 -4.85,12.54 a 26.67,26.67 0 0 1 -6.17,3.79 l -2.36,0.73 -3.48,-16.26 a 7,7 0 0 1 5.24,5 c 1.23,-1.28 4.3,-4.44 5.52,-5.43 1.42,-1.15 -3.3,-4.52 -6.36,-6.28 -4,-2.32 -5.84,-0.4 -6.46,-2.87 -0.41,-1.64 -1.24,-4.46 -2.26,-8.56 A 11.34,11.34 0 0 1 27.07,98.87 C 27.5,97.02 27.6,97 25.93,97.42 c -2.51,0.63 -1.46,0.19 -4.8,1 -2.5,0.62 -2.49,0.53 -1.25,2 1.65,1.89 2.57,9.6 3.59,12.83 0.61,2.46 -4.46,2.45 -6.77,7.39 a 15.31,15.31 0 0 0 -0.94,11.24 c 2.17,8.83 8.27,10.8 9.39,11.28 6.22,2.68 13,1.1 18.15,-1.94 a 22.27,22.27 0 0 0 10.06,-13 30.62,30.62 0 0 0 1.51,-11.71 34.19,34.19 0 0 0 -2.66,-10.63 z m -29.72,26 a 8.77,8.77 0 0 1 2.89,-9.67 l 3.29,15.35 a 8.78,8.78 0 0 1 -6.18,-5.69 z"
             id="path28" />
          <path
             class="cls-4"
             d="m 101.27,98 c -3,-1.53 -3.47,-1.42 -5.57,-1.52 -0.55,0 0.48,-0.89 1.09,-1.86 a 7.5,7.5 0 0 0 0.29,-7.12 7.09,7.09 0 0 0 -5.59,-3.69 c -1.54,-0.1 -2.36,0.49 -4.8,1.58 a 55,55 0 0 1 -7.12,2.61 11.06,11.06 0 0 1 1.5,1.85 11.53,11.53 0 0 1 1,2 47.35,47.35 0 0 1 1.93,5.45 l 1,4.18 c 0.13,0.5 0.13,0.5 0.25,1 l 0.2,0.81 a 7.15,7.15 0 0 0 -1.28,1 10.53,10.53 0 0 0 -3,8.79 11.37,11.37 0 0 0 7.38,8.73 c 6.15,2.15 11.23,-2.57 12.54,-3.78 1.31,-1.21 4.8,-4.43 4.82,-9.72 C 106,105.09 104.6,99.69 101.27,98 Z m -0.37,10.94 a 9.15,9.15 0 0 1 -2.65,6 9.8,9.8 0 0 1 -4.53,2.6 c -1.52,0.46 -2.67,0.81 -4.07,0.33 a 6.36,6.36 0 0 1 -3.49,-3.59 6.81,6.81 0 0 1 -0.41,-3.71 c 0.15,-1.09 0.6,-2.41 1,-2.38 l 1.25,5.14 v 0 l 0.26,1 c 0.15,0.62 0.84,0.32 2.22,0.61 2.38,0.5 3.55,1.38 3.34,0.91 a 32.8,32.8 0 0 1 -2.3,-7.11 l -0.64,-2.57 c -0.09,-0.34 1.47,0.46 1.73,0.71 1.57,1.52 1.55,4.79 2.06,2.93 a 4.8,4.8 0 0 1 3,-2.88 c 0.56,-0.19 0,-1 -0.88,-2 a 9.32,9.32 0 0 0 -6.94,-2.85 l -0.25,-1 -0.26,-1 -1.17,-4.63 -0.17,-0.61 -0.61,-2.4 a 17,17 0 0 0 -0.63,-2 1.07,1.07 0 0 1 -0.06,-0.8 c 0.13,-0.33 0.44,-0.51 2.34,-1 a 6.11,6.11 0 0 1 2,-0.43 3.61,3.61 0 0 1 2.26,2.79 5.11,5.11 0 0 1 -0.71,3.41 c -0.72,1.48 -1.4,1.64 -1.81,3.1 -0.16,0.58 -0.46,1.65 0,2.17 0.46,0.52 1.59,-0.16 3.09,-0.12 2.48,0.06 4.38,2.24 4.84,2.76 a 9.32,9.32 0 0 1 2.19,6.59 z"
             id="path30" />
          <polygon
             class="cls-4"
             points="172.55,62.11 174.62,73.17 176.04,83.75 188.89,78.76 187.44,74.34 184.55,75.63 179.92,77.56 179.06,73.11 186.02,70.49 185.13,65.48 178.76,68.07 177.91,62.03 184.76,59.31 183.31,54.9 171.69,58.9 "
             id="polygon32" />
          <path
             class="cls-4"
             d="m 115.7,98.66 c 1.34,1.15 2.76,2.32 4.26,3.49 a 41.61,41.61 0 0 0 4.37,3 4.19,4.19 0 0 1 -0.49,0.59 6.25,6.25 0 0 1 -0.74,0.69 8,8 0 0 1 -0.95,0.68 4.83,4.83 0 0 1 -1.15,0.53 6,6 0 0 1 -1.86,-0.73 20.19,20.19 0 0 1 -2.3,-1.5 c -0.83,-0.6 -1.68,-1.28 -2.54,-2 -0.86,-0.72 -1.73,-1.52 -2.58,-2.32 0.44,1.35 0.94,2.67 1.51,4 0.57,1.33 2.11,5.27 2,4.67 a 3.49,3.49 0 0 1 -1.13,0.59 7.07,7.07 0 0 1 -1.13,0.6 c -0.84,0.27 -1.6,0.77 -2.29,0.65 -0.83,-1.64 -1.54,-4.48 -2.3,-6.37 -0.76,-1.89 -1.47,-3.77 -2.12,-5.64 -0.65,-1.87 -1.24,-3.64 -1.79,-5.33 -0.55,-1.69 -1,-3.16 -1.39,-4.42 l -0.79,-1 a 8.27,8.27 0 0 1 -0.67,-1 8.54,8.54 0 0 1 1.86,-1.6 13.86,13.86 0 0 1 3.14,-1.39 14,14 0 0 1 3.67,-0.7 7.79,7.79 0 0 1 3.26,0.51 7.29,7.29 0 0 1 2.72,1.89 10.7,10.7 0 0 1 2,3.44 6.94,6.94 0 0 1 0.23,4.89 8.07,8.07 0 0 1 -2.8,3.78 z m -5.5,-1.66 0.4,-0.07 0.39,-0.11 a 3.49,3.49 0 0 0 1.61,-1.09 5.9,5.9 0 0 0 1,-1.71 6.33,6.33 0 0 0 0.4,-1.88 3.71,3.71 0 0 0 -0.19,-1.56 3.29,3.29 0 0 0 -1.79,-2 5.34,5.34 0 0 0 -3.63,0.24 3.64,3.64 0 0 0 -0.75,0.36 c 0.31,0.94 0.58,1.78 0.81,2.51 0.23,0.73 0.44,1.41 0.64,2 0.2,0.59 0.37,1.17 0.55,1.7 0.18,0.53 0.36,1.1 0.56,1.61 z"
             id="path34" />
          <path
             class="cls-4"
             d="m 197.93,65.78 c 1.1,1.31 2.27,2.65 3.52,4 a 41.49,41.49 0 0 0 3.67,3.55 4.65,4.65 0 0 1 -0.5,0.51 8,8 0 0 1 -0.74,0.59 6.91,6.91 0 0 1 -0.88,0.57 4.47,4.47 0 0 1 -1.1,0.38 5.5,5.5 0 0 1 -1.62,-1 21.34,21.34 0 0 1 -1.94,-1.78 c -0.69,-0.7 -1.4,-1.48 -2.11,-2.33 -0.71,-0.85 -1.42,-1.72 -2.11,-2.62 0.26,1.39 0.59,2.76 1,4.12 0.41,1.36 0.91,4.94 0.86,4.33 -0.23,0.25 -0.13,0.25 -0.48,0.41 a 5.36,5.36 0 0 1 -1.09,0.36 6.19,6.19 0 0 1 -2.56,0.06 c -0.58,-1.72 -0.67,-3.69 -1.17,-5.66 -0.5,-1.97 -1,-3.91 -1.36,-5.83 -0.36,-1.92 -0.77,-3.75 -1.1,-5.49 -0.33,-1.74 -0.6,-3.25 -0.82,-4.54 -0.19,-0.31 -0.39,-0.68 -0.62,-1.1 a 8.31,8.31 0 0 1 -0.52,-1 7.41,7.41 0 0 1 1.74,-1.38 13.19,13.19 0 0 1 6.4,-1.19 6.81,6.81 0 0 1 2.91,0.91 7,7 0 0 1 2.28,2.23 11.3,11.3 0 0 1 1.49,3.64 7.52,7.52 0 0 1 -0.28,4.87 7.59,7.59 0 0 1 -2.87,3.39 z m -4.84,-2.34 h 0.37 l 0.37,-0.06 a 3,3 0 0 0 1.57,-0.87 5.51,5.51 0 0 0 1.08,-1.56 6.46,6.46 0 0 0 0.55,-1.8 4.25,4.25 0 0 0 0,-1.56 3.38,3.38 0 0 0 -1.44,-2.17 4.58,4.58 0 0 0 -3.32,-0.23 3,3 0 0 0 -0.72,0.26 c 0.19,1 0.35,1.83 0.49,2.59 0.14,0.76 0.26,1.44 0.38,2.06 0.12,0.62 0.22,1.2 0.33,1.75 0.11,0.55 0.25,1.06 0.34,1.59 z"
             id="path36" />
          <path
             class="cls-4"
             d="m 152.5,66.45 4.55,-1.84 11,10.58 v 0 l -3.62,-13.11 4.57,-1.84 5.37,24.19 -2.84,1.22 -11.12,-12.71 4.34,15.74 -4.55,1.84 -6.52,-21.9 v 0 a 4.22,4.22 0 0 0 -0.54,-1.14"
             id="path38" />
          <path
             class="cls-4"
             d="m 135.37,73.67 4.56,-1.84 11.72,11.17 v 0 l -4.26,-14.14 4,-1.81 6.57,24.66 -2.85,1.22 -11.8,-12.75 4.34,15.73 -4.56,1.84 -6.51,-21.9 v 0 A 4.4,4.4 0 0 0 136,74.7"
             id="path40" />
          <text
             class="cls-5"
             transform="rotate(0.1,-71827.303,44495.581)"
             id="text42">.</text>
        </g>
      </g>
    </g>
  </g>
</svg>
